<svg xmlns="http://www.w3.org/2000/svg" viewBox="0 0 147.5 64.0" width="147.5" height="64.0"><defs></defs><rect width="147.5" height="64.0" fill="#F2EFE8"></rect><g transform="translate(16.00,16.00) scale(0.3200)"><line x1="50" y1="50" x2="50" y2="12" stroke="#15110D" stroke-width="1.6" opacity="0.5" stroke-linecap="round"></line><line x1="50" y1="50" x2="82" y2="28" stroke="#15110D" stroke-width="1.6" opacity="0.5" stroke-linecap="round"></line><line x1="50" y1="50" x2="88" y2="60" stroke="#15110D" stroke-width="1.6" opacity="0.5" stroke-linecap="round"></line><line x1="50" y1="50" x2="64" y2="84" stroke="#15110D" stroke-width="1.6" opacity="0.5" stroke-linecap="round"></line><line x1="50" y1="50" x2="34" y2="84" stroke="#15110D" stroke-width="1.6" opacity="0.5" stroke-linecap="round"></line><line x1="50" y1="50" x2="12" y2="58" stroke="#15110D" stroke-width="1.6" opacity="0.5" stroke-linecap="round"></line><line x1="50" y1="50" x2="20" y2="26" stroke="#15110D" stroke-width="1.6" opacity="0.5" stroke-linecap="round"></line><circle cx="50" cy="12" r="3.6" fill="#15110D"></circle><circle cx="82" cy="28" r="3.6" fill="#15110D"></circle><circle cx="88" cy="60" r="3.6" fill="#15110D"></circle><circle cx="64" cy="84" r="3.6" fill="#15110D"></circle><circle cx="34" cy="84" r="3.6" fill="#15110D"></circle><circle cx="12" cy="58" r="3.6" fill="#15110D"></circle><circle cx="20" cy="26" r="3.6" fill="#15110D"></circle><circle cx="50" cy="50" r="8" fill="#C2410C"></circle></g><text x="62.00" y="40.84" font-family="&#39;Instrument Serif&#39;, serif" font-size="26" fill="#15110D">brainite</text><circle cx="134.23" cy="39.12" r="1.72" fill="#C2410C"></circle></svg>